<?xml version="1.0" encoding="UTF-8" standalone="no"?>
<svg
   xmlns:dc="http://purl.org/dc/elements/1.1/"
   xmlns:cc="http://creativecommons.org/ns#"
   xmlns:rdf="http://www.w3.org/1999/02/22-rdf-syntax-ns#"
   xmlns:svg="http://www.w3.org/2000/svg"
   xmlns="http://www.w3.org/2000/svg"
   id="svg8"
   version="1.1"
   viewBox="0 0 148.16666 148.16667"
   height="560"
   width="560">
  <defs
     id="defs2" />
  <metadata
     id="metadata5">
    <rdf:RDF>
      <cc:Work
         rdf:about="">
        <dc:format>image/svg+xml</dc:format>
        <dc:type
           rdf:resource="http://purl.org/dc/dcmitype/StillImage" />
        <dc:title></dc:title>
      </cc:Work>
    </rdf:RDF>
  </metadata>
  <g
     transform="translate(0,-148.83332)"
     id="layer1">
    <path
       id="path942"
       style="opacity:1;fill:#212121;fill-opacity:1;stroke:none;stroke-width:8.8949995;stroke-miterlimit:4;stroke-dasharray:none;stroke-opacity:0.99500002;paint-order:markers stroke fill"
       d="m 121.42988,260.8283 a 54.554484,54.554484 0 0 1 -8.66664,8.99934 l 10.53914,14.02798 0.0128,-0.0102 a 6.1667026,6.1667026 0 0 0 0.007,0.0128 6.1667026,6.1667026 0 0 0 8.63485,1.22625 v -0.003 a 6.1667026,6.1667026 0 0 0 1.22616,-8.63477 6.1667026,6.1667026 0 0 0 -0.22962,-0.27662 z m -94.036978,0 -11.527085,15.34221 a 6.1667026,6.1667026 0 0 0 -0.2296,0.27665 6.1667026,6.1667026 0 0 0 1.226232,8.63477 v 0.003 a 6.1667026,6.1667026 0 0 0 8.634765,-1.22626 6.1667026,6.1667026 0 0 0 0.0077,-0.0128 l 0.01275,0.0102 10.539206,-14.02799 a 54.554484,54.554484 0 0 1 -8.666761,-8.99933 z m 46.635103,-92.19525 a 54.554484,54.554484 0 0 0 -54.554239,54.55431 54.554484,54.554484 0 0 0 54.554239,54.55555 54.554484,54.554484 0 0 0 54.554385,-54.55555 54.554484,54.554484 0 0 0 -54.554385,-54.55431 z m -35.275803,36.1044 h 70.881918 v 35.42501 H 38.752202 Z m 79.505088,-44.293 a 27.737311,27.737311 0 0 0 -20.053376,8.59014 54.554484,54.554484 0 0 1 34.872986,42.5556 27.737311,27.737311 0 0 0 12.91777,-23.40844 27.737311,27.737311 0 0 0 -27.73738,-27.7373 z m -88.347997,-0.93236 a 27.737311,27.737311 0 0 0 -27.7372989,27.7373 27.737311,27.737311 0 0 0 12.9177039,23.40847 54.554484,54.554484 0 0 1 34.873083,-42.55563 27.737311,27.737311 0 0 0 -20.053488,-8.59014 z" />
  </g>
</svg>
