<?xml version="1.0" encoding="UTF-8" standalone="no"?>
<!-- Created with Inkscape (http://www.inkscape.org/) -->

<svg
   xmlns:dc="http://purl.org/dc/elements/1.1/"
   xmlns:cc="http://creativecommons.org/ns#"
   xmlns:rdf="http://www.w3.org/1999/02/22-rdf-syntax-ns#"
   xmlns:svg="http://www.w3.org/2000/svg"
   xmlns="http://www.w3.org/2000/svg"
   xmlns:sodipodi="http://sodipodi.sourceforge.net/DTD/sodipodi-0.dtd"
   xmlns:inkscape="http://www.inkscape.org/namespaces/inkscape"
   width="560"
   height="560"
   viewBox="0 0 148.16666 148.16667"
   version="1.1"
   id="svg8"
   inkscape:version="0.92.5 (2060ec1f9f, 2020-04-08)"
   sodipodi:docname="drawing.svg">
  <defs
     id="defs2" />
  <sodipodi:namedview
     id="base"
     pagecolor="#ffffff"
     bordercolor="#666666"
     borderopacity="1.0"
     inkscape:pageopacity="0.0"
     inkscape:pageshadow="2"
     inkscape:zoom="0.35"
     inkscape:cx="-167.84279"
     inkscape:cy="242.96761"
     inkscape:document-units="mm"
     inkscape:current-layer="layer1"
     showgrid="false"
     inkscape:window-width="1600"
     inkscape:window-height="836"
     inkscape:window-x="0"
     inkscape:window-y="27"
     inkscape:window-maximized="1"
     units="px" />
  <metadata
     id="metadata5">
    <rdf:RDF>
      <cc:Work
         rdf:about="">
        <dc:format>image/svg+xml</dc:format>
        <dc:type
           rdf:resource="http://purl.org/dc/dcmitype/StillImage" />
        <dc:title></dc:title>
      </cc:Work>
    </rdf:RDF>
  </metadata>
  <g
     inkscape:label="Layer 1"
     inkscape:groupmode="layer"
     id="layer1"
     transform="translate(0,-148.83332)">
    <g
       id="g851"
       transform="matrix(0.10283874,0,0,0.10283874,1.9878872,292.63495)"
       style="opacity:1;fill:#212121;fill-opacity:1">
      <path
         id="circle827"
         style="opacity:1;fill:#212121;fill-opacity:1;stroke:#ffffff;stroke-width:0;stroke-miterlimit:4;stroke-dasharray:none;stroke-opacity:0.99500002"
         d="m 316.8743,-582.4719 a 93.255201,93.255201 0 0 0 -93.25414,93.25591 93.255201,93.255201 0 0 0 93.25414,93.25587 93.255201,93.255201 0 0 0 93.25591,-93.25587 93.255201,93.255201 0 0 0 -31.41874,-69.6875 42.144174,42.144174 0 0 1 7.20885,23.5077 42.144174,42.144174 0 0 1 -42.14536,42.14539 42.144174,42.144174 0 0 1 -42.14366,-42.14539 42.144174,42.144174 0 0 1 42.14366,-42.14362 42.144174,42.144174 0 0 1 3.19529,0.15936 93.255201,93.255201 0 0 0 -30.09595,-5.09199 z m 136.29679,93.25598 A 136.29607,136.29607 0 0 1 316.87501,-352.91984 136.29607,136.29607 0 0 1 180.57896,-489.21592 136.29607,136.29607 0 0 1 316.87501,-625.512 136.29607,136.29607 0 0 1 453.17109,-489.21592 Z M 316.8178,-645.35039 A 247.91427,247.91427 0 0 0 86.744166,-489.2327 h -0.0168 a 247.91427,247.91427 0 0 0 0.0102,0.0168 247.91427,247.91427 0 0 0 -0.0102,0.0168 h 0.0168 A 247.91427,247.91427 0 0 0 316.8178,-333.0814 247.91427,247.91427 0 0 0 547.00588,-489.1991 h 0.0168 a 247.91427,247.91427 0 0 0 -0.0102,-0.0168 247.91427,247.91427 0 0 0 0.0102,-0.0168 h -0.0168 A 247.91427,247.91427 0 0 0 316.8178,-645.35039 Z"
         inkscape:connector-curvature="0" />
    </g>
    <path
       inkscape:connector-curvature="0"
       d="m 120.18685,273.68818 a 21.382209,21.382209 0 0 1 -3.39682,3.52722 l 4.13073,5.49816 0.005,-0.004 a 2.4169915,2.4169915 0 0 0 0.003,0.005 2.4169915,2.4169915 0 0 0 3.38436,0.48062 v -10e-4 a 2.4169915,2.4169915 0 0 0 0.48059,-3.38433 2.4169915,2.4169915 0 0 0 -0.09,-0.10842 z m -36.857069,0 -4.517952,6.01326 a 2.4169915,2.4169915 0 0 0 -0.08999,0.10843 2.4169915,2.4169915 0 0 0 0.480612,3.38433 v 10e-4 a 2.4169915,2.4169915 0 0 0 3.38433,-0.48062 2.4169915,2.4169915 0 0 0 0.003,-0.005 l 0.005,0.004 4.13076,-5.49816 a 21.382209,21.382209 0 0 1 -3.39687,-3.52722 z M 101.60805,237.55296 A 21.382209,21.382209 0 0 0 80.225937,258.9351 21.382209,21.382209 0 0 0 101.60805,280.31773 21.382209,21.382209 0 0 0 122.99022,258.9351 21.382209,21.382209 0 0 0 101.60805,237.55296 Z M 87.781971,251.7038 h 27.781619 v 13.88456 H 87.781971 Z m 31.161409,-17.3603 a 10.871425,10.871425 0 0 0 -7.85977,3.36684 21.382209,21.382209 0 0 1 13.6682,16.67934 10.871425,10.871425 0 0 0 5.06302,-9.17476 10.871425,10.871425 0 0 0 -10.87145,-10.87142 z m -34.627319,-0.36543 a 10.871425,10.871425 0 0 0 -10.87142,10.87142 10.871425,10.871425 0 0 0 5.062994,9.17477 21.382209,21.382209 0 0 1 13.668236,-16.67935 10.871425,10.871425 0 0 0 -7.85981,-3.36684 z"
       style="opacity:1;fill:#212121;fill-opacity:1;stroke:none;stroke-width:3.48632669;stroke-miterlimit:4;stroke-dasharray:none;stroke-opacity:0.99500002;paint-order:markers stroke fill"
       id="path942" />
    <path
       style="opacity:1;fill:#212121;fill-opacity:1;stroke:none;stroke-width:4.67696762;stroke-miterlimit:4;stroke-dasharray:none;stroke-opacity:0.99500002;paint-order:markers stroke fill"
       d="m 26.525809,165.26372 a 4.6446121,4.6446121 0 0 0 -4.644777,4.64438 4.6446121,4.6446121 0 0 0 4.644777,4.64478 4.6446121,4.6446121 0 0 0 4.644403,-4.64478 4.6446121,4.6446121 0 0 0 -4.644403,-4.64438 z m -1.745678,9.99728 v 3.3e-4 c -2.602237,-2e-5 -4.711768,2.10951 -4.711752,4.71175 0.0017,0.16278 0.01183,0.32547 0.03041,0.48721 -0.01474,0.10595 -0.02499,0.2132 -0.02499,0.32328 0,0 0.44451,5.25037 0.44451,7.84212 0,2.59176 -0.44451,7.70858 -0.44451,7.70858 0,1.00517 1.121756,3.24102 2.014324,3.56066 0.311483,0.0905 0.593959,0.12157 0.900162,0.159 l 9.739067,-0.007 -2.053951,10.14855 c -0.238326,1.17761 0.518042,2.31748 1.695649,2.5558 1.177619,0.23831 2.317492,-0.51805 2.555806,-1.69566 l 2.506152,-12.38415 c 0.137024,-0.67725 -0.05579,-1.34084 -0.467592,-1.82882 -0.341662,-0.4424 -0.85349,-0.7529 -1.454737,-0.82627 l -6.011387,-0.73355 v -12.60239 c 1.343802,0.39757 2.987417,0.79474 4.09944,0.75276 2.973031,-0.1123 8.67918,-0.42258 8.67918,-0.42258 0.739114,0 1.333908,-0.70442 1.333908,-1.57942 0,-0.87499 -0.594794,-1.57943 -1.333908,-1.57943 0,0 -5.792504,0.69002 -8.67918,0.42294 -1.121325,-0.10371 -2.787319,-0.50421 -4.139857,-0.86707 -0.27959,-2.33543 -2.266052,-4.1465 -4.676732,-4.14647 z m 26.693325,0.87748 c -0.110747,0.009 -0.215611,0.0685 -0.275554,0.17241 l -4.169099,7.22136 h -8.372071 c -0.191837,0 -0.346373,0.15454 -0.346373,0.34637 0,0.19181 0.154536,0.34635 0.346373,0.34635 h 8.530627 c 0.02509,0 0.04913,-0.003 0.07279,-0.009 0.109551,-0.009 0.212781,-0.0694 0.272087,-0.17202 l 4.265325,-7.38763 c 0.09598,-0.16621 0.03949,-0.37707 -0.126545,-0.47299 -0.0623,-0.0359 -0.131014,-0.0505 -0.197433,-0.0458 z m -36.175701,4.37459 c -0.04365,0.002 -0.09244,0.007 -0.148933,0.0137 -0.7065,0.096 -1.223729,0.76738 -1.338909,1.62754 -0.459861,0.0574 -0.894919,0.0702 -1.25346,0.12192 v -3.3e-4 c -0.63143,0.0917 -0.961659,0.30143 -0.91787,1.1226 l 0.367536,6.88808 c 0.05125,0.96161 1.646725,-0.11161 2.699731,-0.78702 l 0.601528,4.4285 c 0.129083,0.95054 0.556526,0.75438 1.178026,0.57149 l 0.676575,5.0281 c 0.02539,0.18854 0.197469,0.31977 0.385997,0.29441 l 0.406803,-0.0546 c 0.219487,0.34223 0.6461,0.81288 1.433184,1.09299 -0.02086,0.0563 -0.03534,0.11521 -0.03534,0.17742 0,0.33129 0.317611,0.59766 0.711971,0.59766 h 5.222442 c -0.02608,0.0802 -0.04192,0.16655 -0.04192,0.25785 v 11.07257 h -3.614147 c -0.287457,0 -0.518779,0.23132 -0.518779,0.51879 v 0.15848 c 0,0.28747 0.231322,0.51878 0.518779,0.51878 h 8.424028 c 0.28746,0 0.519156,-0.23131 0.519156,-0.51878 v -0.15848 c 0,-0.28747 -0.231696,-0.51879 -0.519156,-0.51879 h -3.61376 v -11.07257 c 0,-0.0913 -0.01544,-0.17773 -0.04192,-0.25785 h 5.222052 c 0.394363,0 0.711968,-0.26637 0.711968,-0.59768 0,-0.33129 -0.317605,-0.59805 -0.711968,-0.59805 H 20.064647 c -0.204527,0 -0.38725,0.0725 -0.516852,0.18781 l -1.333518,-0.94135 c 0.09501,-0.0723 0.150282,-0.19106 0.133159,-0.31828 l -0.674254,-5.01154 c 0.594748,0.012 1.017708,0.0171 0.897087,-0.87169 l -1.496374,-11.01798 c -0.08131,-0.5988 -0.08165,-1.15245 -0.684647,-1.46512 -0.728777,-0.3779 -0.785792,-0.50481 -1.091446,-0.48955 z m 18.456338,3.87355 c -0.774963,0 -1.398926,0.41314 -1.398926,0.92634 0,0.51321 0.623963,0.92634 1.398926,0.92634 h 4.318059 v 26.30155 c 0,0.89866 0.266747,1.62214 0.598057,1.62214 0.331293,0 0.598057,-0.72348 0.598057,-1.62214 V 186.2393 h 11.642145 v 26.30155 c 0,0.89866 0.266771,1.62214 0.598058,1.62214 0.331309,0 0.598057,-0.72348 0.598057,-1.62214 V 186.2393 h 4.358836 c 0.774979,0 1.398933,-0.41313 1.398933,-0.92634 0,-0.5132 -0.623954,-0.92634 -1.398933,-0.92634 z"
       id="path972"
       inkscape:connector-curvature="0" />
    <path
       style="opacity:1;fill:#212121;fill-opacity:1;stroke:none;stroke-width:3.94506454;stroke-miterlimit:4;stroke-dasharray:none;stroke-opacity:0.99500002;paint-order:markers stroke fill"
       d="m 89.202949,174.54293 a 18.135602,18.135602 0 0 0 -18.135443,18.13581 18.135602,18.135602 0 0 0 18.135443,18.13545 18.135602,18.135602 0 0 0 18.135441,-18.13545 18.135602,18.135602 0 0 0 -18.135441,-18.13581 z m -0.683311,1.92325 v 3.18927 c 0,0.17669 0.142395,0.31872 0.319077,0.31872 h 0.728465 c 0.176685,0 0.319077,-0.14203 0.319077,-0.31872 v -3.17935 a 16.236585,16.236585 0 0 1 6.637768,1.73012 l -1.482644,2.56802 c -0.08837,0.15301 -0.03626,0.34712 0.116763,0.43547 l 0.631166,0.36423 c 0.153012,0.0884 0.347131,0.0362 0.435467,-0.11676 l 1.490362,-2.58123 a 16.236585,16.236585 0 0 1 5.012651,4.8375 l -3.075435,1.77566 c -0.153012,0.0884 -0.205111,0.28246 -0.116765,0.43547 l 0.364234,0.63118 c 0.08837,0.153 0.282826,0.2051 0.435826,0.11676 l 3.09234,-1.78557 a 16.236585,16.236585 0 0 1 1.98715,7.10849 h -3.25133 c -0.17667,0 -0.3187,0.14239 -0.3187,0.31907 v 0.72847 c 0,0.17668 0.14203,0.31907 0.3187,0.31907 h 3.24141 a 16.236585,16.236585 0 0 1 -1.67651,6.52688 l -2.82356,-1.63025 c -0.15301,-0.0884 -0.34714,-0.0362 -0.43547,0.11677 l -0.36424,0.6308 c -0.0884,0.15302 -0.0366,0.3475 0.11639,0.43583 l 2.8478,1.64384 a 16.236585,16.236585 0 0 1 -4.758202,5.01523 l -1.516791,-2.6275 c -0.08837,-0.15301 -0.282826,-0.20509 -0.435837,-0.11676 l -0.630807,0.36424 c -0.153011,0.0884 -0.205098,0.28282 -0.116765,0.43584 l 1.535161,2.65943 a 16.236585,16.236585 0 0 1 -7.260132,2.07454 v -3.31375 c 0,-0.17668 -0.142392,-0.31871 -0.319077,-0.31871 h -0.728465 c -0.176682,0 -0.319077,0.14203 -0.319077,0.31871 v 3.30384 a 16.236585,16.236585 0 0 1 -7.505031,-2.20159 l 1.456569,-2.52247 c 0.08837,-0.15302 0.03626,-0.3475 -0.116752,-0.43584 l -0.630807,-0.36424 c -0.152999,-0.0884 -0.347491,-0.0363 -0.435837,0.11676 l -1.427573,2.47255 a 16.236585,16.236585 0 0 1 -4.608398,-4.99834 l 2.608403,-1.50578 c 0.153011,-0.0884 0.205111,-0.28281 0.116762,-0.43583 l -0.364231,-0.6308 c -0.08837,-0.15301 -0.282465,-0.2051 -0.435467,-0.11677 l -2.577199,1.4878 a 16.236585,16.236585 0 0 1 -1.609322,-6.38443 h 3.25133 c 0.176673,0 0.318703,-0.14239 0.318703,-0.31907 v -0.72847 c 0,-0.17668 -0.14203,-0.31907 -0.318703,-0.31907 h -3.241416 a 16.236585,16.236585 0 0 1 1.890948,-6.97154 l 2.855146,1.64862 c 0.153012,0.0884 0.347494,0.0363 0.43583,-0.11676 l 0.364243,-0.63118 c 0.08837,-0.15301 0.03626,-0.34712 -0.116762,-0.43547 l -2.836427,-1.63796 a 16.236585,16.236585 0 0 1 4.85,-4.84265 l 1.413993,2.44868 c 0.08837,0.15301 0.282455,0.20509 0.435465,0.11676 l 0.631171,-0.36423 c 0.153009,-0.0884 0.205099,-0.28246 0.116762,-0.43547 l -1.412147,-2.44575 a 16.236585,16.236585 0 0 1 6.890747,-1.86231 z m 0.369382,7.04717 v 8.85146 l 7.40846,4.27721 0.313927,-0.54379 -7.094532,-4.09582 v -8.48906 z"
       id="circle1185"
       inkscape:connector-curvature="0" />
  </g>
</svg>
