<?xml version="1.0" encoding="UTF-8" standalone="no"?>
<svg
   xmlns:dc="http://purl.org/dc/elements/1.1/"
   xmlns:cc="http://creativecommons.org/ns#"
   xmlns:rdf="http://www.w3.org/1999/02/22-rdf-syntax-ns#"
   xmlns:svg="http://www.w3.org/2000/svg"
   xmlns="http://www.w3.org/2000/svg"
   id="svg8"
   version="1.1"
   viewBox="0 0 148.16666 148.16667"
   height="560"
   width="560">
  <defs
     id="defs2" />
  <metadata
     id="metadata5">
    <rdf:RDF>
      <cc:Work
         rdf:about="">
        <dc:format>image/svg+xml</dc:format>
        <dc:type
           rdf:resource="http://purl.org/dc/dcmitype/StillImage" />
        <dc:title></dc:title>
      </cc:Work>
    </rdf:RDF>
  </metadata>
  <g
     transform="translate(0,-148.83332)"
     id="layer1">
    <g
       style="opacity:1;fill:#212121;fill-opacity:1"
       transform="matrix(0.31305575,0,0,0.31305575,-25.116215,376.0685)"
       id="g851">
      <path
         d="m 316.8743,-582.4719 a 93.255201,93.255201 0 0 0 -93.25414,93.25591 93.255201,93.255201 0 0 0 93.25414,93.25587 93.255201,93.255201 0 0 0 93.25591,-93.25587 93.255201,93.255201 0 0 0 -31.41874,-69.6875 42.144174,42.144174 0 0 1 7.20885,23.5077 42.144174,42.144174 0 0 1 -42.14536,42.14539 42.144174,42.144174 0 0 1 -42.14366,-42.14539 42.144174,42.144174 0 0 1 42.14366,-42.14362 42.144174,42.144174 0 0 1 3.19529,0.15936 93.255201,93.255201 0 0 0 -30.09595,-5.09199 z m 136.29679,93.25598 A 136.29607,136.29607 0 0 1 316.87501,-352.91984 136.29607,136.29607 0 0 1 180.57896,-489.21592 136.29607,136.29607 0 0 1 316.87501,-625.512 136.29607,136.29607 0 0 1 453.17109,-489.21592 Z M 316.8178,-645.35039 A 247.91427,247.91427 0 0 0 86.744166,-489.2327 h -0.0168 a 247.91427,247.91427 0 0 0 0.0102,0.0168 247.91427,247.91427 0 0 0 -0.0102,0.0168 h 0.0168 A 247.91427,247.91427 0 0 0 316.8178,-333.0814 247.91427,247.91427 0 0 0 547.00588,-489.1991 h 0.0168 a 247.91427,247.91427 0 0 0 -0.0102,-0.0168 247.91427,247.91427 0 0 0 0.0102,-0.0168 h -0.0168 A 247.91427,247.91427 0 0 0 316.8178,-645.35039 Z"
         style="opacity:1;fill:#212121;fill-opacity:1;stroke:#ffffff;stroke-width:0;stroke-miterlimit:4;stroke-dasharray:none;stroke-opacity:0.99500002"
         id="circle827" />
    </g>
  </g>
</svg>
