<?xml version="1.0" encoding="UTF-8" standalone="no"?>
<svg
   xmlns:dc="http://purl.org/dc/elements/1.1/"
   xmlns:cc="http://creativecommons.org/ns#"
   xmlns:rdf="http://www.w3.org/1999/02/22-rdf-syntax-ns#"
   xmlns:svg="http://www.w3.org/2000/svg"
   xmlns="http://www.w3.org/2000/svg"
   id="svg8"
   version="1.1"
   viewBox="0 0 148.16666 148.16667"
   height="560"
   width="560">
  <defs
     id="defs2" />
  <metadata
     id="metadata5">
    <rdf:RDF>
      <cc:Work
         rdf:about="">
        <dc:format>image/svg+xml</dc:format>
        <dc:type
           rdf:resource="http://purl.org/dc/dcmitype/StillImage" />
        <dc:title></dc:title>
      </cc:Work>
    </rdf:RDF>
  </metadata>
  <g
     transform="translate(0,-148.83332)"
     id="layer1">
    <path
       id="path972"
       d="M 49.840837,150.84202 A 13.691768,13.691768 0 0 0 36.148583,164.5331 13.691768,13.691768 0 0 0 49.840837,178.22537 13.691768,13.691768 0 0 0 63.531988,164.5331 13.691768,13.691768 0 0 0 49.840837,150.84202 Z m -5.146053,29.4708 v 9.7e-4 c -7.671087,-6e-5 -13.889735,6.21859 -13.889688,13.88969 0.005,0.47985 0.03487,0.95944 0.08965,1.43623 -0.04345,0.31233 -0.07367,0.62849 -0.07367,0.95299 0,0 1.310363,15.47747 1.310363,23.11765 0,7.6402 -1.310363,22.72398 -1.310363,22.72398 0,2.96312 3.306804,9.55414 5.937989,10.49641 0.918215,0.26678 1.750921,0.35837 2.653571,0.46871 l 28.709619,-0.0206 -6.054805,29.91673 c -0.702557,3.47145 1.527127,6.83166 4.998573,7.5342 3.471482,0.70251 6.831692,-1.52715 7.534214,-4.99861 l 7.38784,-36.50701 c 0.403931,-1.99645 -0.164462,-3.95264 -1.378406,-5.39115 -1.007179,-1.30414 -2.515988,-2.21946 -4.288393,-2.43574 L 58.60042,239.33485 v -37.15036 c 3.961369,1.17199 8.806552,2.3428 12.084664,2.21905 8.764144,-0.33105 25.585197,-1.24572 25.585197,-1.24572 2.178821,0 3.932199,-2.07654 3.932199,-4.65594 0,-2.57937 -1.753378,-4.65597 -3.932199,-4.65597 0,0 -17.075617,2.0341 -25.585197,1.24677 -3.305533,-0.30572 -8.216687,-1.48635 -12.203809,-2.55602 -0.824198,-6.88457 -6.680053,-12.22339 -13.786453,-12.2233 z m 78.688766,2.58671 c -0.32647,0.0265 -0.63559,0.20193 -0.8123,0.50824 l -12.29001,21.28772 H 85.601364 c -0.565512,0 -1.021066,0.45556 -1.021066,1.02106 0,0.56543 0.455554,1.02099 1.021066,1.02099 h 25.147276 c 0.074,0 0.14483,-0.009 0.21458,-0.0265 0.32294,-0.0265 0.62725,-0.20458 0.80208,-0.50709 l 12.57368,-21.77786 c 0.28293,-0.48997 0.11641,-1.11156 -0.37304,-1.39432 -0.18366,-0.10583 -0.38622,-0.14887 -0.58201,-0.13501 z M 16.74186,195.7953 c -0.128675,0.006 -0.272502,0.0206 -0.439036,0.0404 -2.082679,0.28299 -3.607409,2.26214 -3.946946,4.79779 -1.355616,0.16921 -2.6381155,0.20694 -3.695052,0.35941 v -9.7e-4 c -1.861381,0.27032 -2.8348571,0.88858 -2.7057723,3.30929 l 1.0834527,20.30524 c 0.151079,2.83472 4.8543506,-0.32901 7.9584876,-2.32004 l 1.773234,13.0547 c 0.380521,2.80208 1.640573,2.22382 3.472681,1.68468 l 1.994463,14.82225 c 0.07485,0.55579 0.582116,0.94264 1.137874,0.86788 l 1.199207,-0.16095 c 0.647022,1.00885 1.904627,2.39627 4.224857,3.222 -0.06149,0.16597 -0.104178,0.33963 -0.104178,0.52302 0,0.9766 0.93628,1.76183 2.098807,1.76183 H 46.18908 c -0.07688,0.23642 -0.123575,0.49097 -0.123575,0.76011 v 32.64063 H 35.411427 c -0.847389,0 -1.529299,0.6819 -1.529299,1.52933 v 0.46718 c 0,0.84743 0.68191,1.5293 1.529299,1.5293 h 24.833039 c 0.847398,0 1.530411,-0.68187 1.530411,-1.5293 v -0.46718 c 0,-0.84743 -0.683013,-1.52933 -1.530411,-1.52933 H 49.591529 v -32.64063 c 0,-0.26914 -0.04552,-0.52393 -0.123576,-0.76011 h 15.393993 c 1.162535,0 2.098797,-0.78523 2.098797,-1.76189 0,-0.97661 -0.936262,-1.76298 -2.098797,-1.76298 H 30.794095 c -0.602922,0 -1.141567,0.21372 -1.523619,0.55364 l -3.931053,-2.77499 c 0.280078,-0.21313 0.443013,-0.56322 0.392537,-0.93825 l -1.987621,-14.77343 c 1.753246,0.0354 3.000082,0.0504 2.644506,-2.56964 l -4.411134,-32.4797 c -0.239692,-1.76519 -0.240694,-3.39729 -2.018258,-4.319 -2.148349,-1.11401 -2.316422,-1.48812 -3.217454,-1.44314 z m 54.407104,11.41877 c -2.284499,0 -4.123869,1.21789 -4.123869,2.73074 0,1.51288 1.83937,2.73074 4.123869,2.73074 h 12.729128 v 77.53386 c 0,2.64915 0.786338,4.78188 1.763001,4.78188 0.976613,0 1.763001,-2.13273 1.763001,-4.78188 v -77.53386 h 34.319666 v 77.53386 c 0,2.64915 0.78641,4.78188 1.76301,4.78188 0.97666,0 1.763,-2.13273 1.763,-4.78188 v -77.53386 h 12.84933 c 2.28455,0 4.12389,-1.21786 4.12389,-2.73074 0,-1.51285 -1.83934,-2.73074 -4.12389,-2.73074 z"
       style="opacity:1;fill:#212121;fill-opacity:1;stroke:none;stroke-width:13.78714752;stroke-miterlimit:4;stroke-dasharray:none;stroke-opacity:0.99500002;paint-order:markers stroke fill" />
  </g>
</svg>
