<?xml version="1.0" encoding="UTF-8" standalone="no"?>
<svg
   xmlns:dc="http://purl.org/dc/elements/1.1/"
   xmlns:cc="http://creativecommons.org/ns#"
   xmlns:rdf="http://www.w3.org/1999/02/22-rdf-syntax-ns#"
   xmlns:svg="http://www.w3.org/2000/svg"
   xmlns="http://www.w3.org/2000/svg"
   xmlns:sodipodi="http://sodipodi.sourceforge.net/DTD/sodipodi-0.dtd"
   xmlns:inkscape="http://www.inkscape.org/namespaces/inkscape"
   id="svg8"
   version="1.1"
   viewBox="0 0 143.82267 126.8094"
   height="479.2796"
   width="543.58179"
   sodipodi:docname="alarm.svg"
   inkscape:version="0.92.5 (2060ec1f9f, 2020-04-08)">
  <sodipodi:namedview
     pagecolor="#ffffff"
     bordercolor="#666666"
     borderopacity="1"
     objecttolerance="10"
     gridtolerance="10"
     guidetolerance="10"
     inkscape:pageopacity="0"
     inkscape:pageshadow="2"
     inkscape:window-width="1600"
     inkscape:window-height="836"
     id="namedview7"
     showgrid="false"
     fit-margin-top="0"
     fit-margin-left="0"
     fit-margin-right="0"
     fit-margin-bottom="0"
     inkscape:zoom="0.42142857"
     inkscape:cx="271.79089"
     inkscape:cy="239.64032"
     inkscape:window-x="0"
     inkscape:window-y="27"
     inkscape:window-maximized="1"
     inkscape:current-layer="svg8" />
  <defs
     id="defs2" />
  <metadata
     id="metadata5">
    <rdf:RDF>
      <cc:Work
         rdf:about="">
        <dc:format>image/svg+xml</dc:format>
        <dc:type
           rdf:resource="http://purl.org/dc/dcmitype/StillImage" />
        <dc:title></dc:title>
      </cc:Work>
    </rdf:RDF>
  </metadata>
  <g
     transform="translate(-2.1719941,-159.51209)"
     id="layer1">
    <path
       id="path942"
       style="opacity:1;fill:#212121;fill-opacity:1;stroke:none;stroke-width:8.8949995;stroke-miterlimit:4;stroke-dasharray:none;stroke-opacity:0.99500002;paint-order:markers stroke fill"
       d="m 121.42988,260.8283 a 54.554484,54.554484 0 0 1 -8.66664,8.99934 l 10.53914,14.02798 0.0128,-0.0102 a 6.1667026,6.1667026 0 0 0 0.007,0.0128 6.1667026,6.1667026 0 0 0 8.63485,1.22625 v -0.003 a 6.1667026,6.1667026 0 0 0 1.22616,-8.63477 6.1667026,6.1667026 0 0 0 -0.22962,-0.27662 z m -94.036978,0 -11.527085,15.34221 a 6.1667026,6.1667026 0 0 0 -0.2296,0.27665 6.1667026,6.1667026 0 0 0 1.226232,8.63477 v 0.003 a 6.1667026,6.1667026 0 0 0 8.634765,-1.22626 6.1667026,6.1667026 0 0 0 0.0077,-0.0128 l 0.01275,0.0102 10.539206,-14.02799 a 54.554484,54.554484 0 0 1 -8.666761,-8.99933 z m 46.635103,-92.19525 a 54.554484,54.554484 0 0 0 -54.554239,54.55431 54.554484,54.554484 0 0 0 54.554239,54.55555 54.554484,54.554484 0 0 0 54.554385,-54.55555 54.554484,54.554484 0 0 0 -54.554385,-54.55431 z m -35.275803,36.1044 h 70.881918 v 35.42501 H 38.752202 Z m 79.505088,-44.293 a 27.737311,27.737311 0 0 0 -20.053376,8.59014 54.554484,54.554484 0 0 1 34.872986,42.5556 27.737311,27.737311 0 0 0 12.91777,-23.40844 27.737311,27.737311 0 0 0 -27.73738,-27.7373 z m -88.347997,-0.93236 a 27.737311,27.737311 0 0 0 -27.7372989,27.7373 27.737311,27.737311 0 0 0 12.9177039,23.40847 54.554484,54.554484 0 0 1 34.873083,-42.55563 27.737311,27.737311 0 0 0 -20.053488,-8.59014 z"
       inkscape:connector-curvature="0" />
  </g>
</svg>
