<?xml version="1.0" encoding="UTF-8" standalone="no"?>
<!-- Created with Inkscape (http://www.inkscape.org/) -->

<svg
   xmlns:dc="http://purl.org/dc/elements/1.1/"
   xmlns:cc="http://creativecommons.org/ns#"
   xmlns:rdf="http://www.w3.org/1999/02/22-rdf-syntax-ns#"
   xmlns:svg="http://www.w3.org/2000/svg"
   xmlns="http://www.w3.org/2000/svg"
   xmlns:sodipodi="http://sodipodi.sourceforge.net/DTD/sodipodi-0.dtd"
   xmlns:inkscape="http://www.inkscape.org/namespaces/inkscape"
   width="560"
   height="560"
   viewBox="0 0 148.16666 148.16667"
   version="1.1"
   id="svg8"
   inkscape:version="0.92.5 (2060ec1f9f, 2020-04-08)"
   sodipodi:docname="clock.svg">
  <defs
     id="defs2" />
  <sodipodi:namedview
     id="base"
     pagecolor="#ffffff"
     bordercolor="#666666"
     borderopacity="1.0"
     inkscape:pageopacity="0.0"
     inkscape:pageshadow="2"
     inkscape:zoom="0.35"
     inkscape:cx="-167.84279"
     inkscape:cy="242.96761"
     inkscape:document-units="mm"
     inkscape:current-layer="layer1"
     showgrid="false"
     inkscape:window-width="1600"
     inkscape:window-height="836"
     inkscape:window-x="0"
     inkscape:window-y="27"
     inkscape:window-maximized="1"
     units="px" />
  <metadata
     id="metadata5">
    <rdf:RDF>
      <cc:Work
         rdf:about="">
        <dc:format>image/svg+xml</dc:format>
        <dc:type
           rdf:resource="http://purl.org/dc/dcmitype/StillImage" />
        <dc:title></dc:title>
      </cc:Work>
    </rdf:RDF>
  </metadata>
  <g
     inkscape:label="Layer 1"
     inkscape:groupmode="layer"
     id="layer1"
     transform="translate(0,-148.83332)">
    <path
       style="opacity:1;fill:#212121;fill-opacity:1;stroke:none;stroke-width:15.7849741;stroke-miterlimit:4;stroke-dasharray:none;stroke-opacity:0.99500002;paint-order:markers stroke fill"
       d="M 74.083337,150.35245 A 72.564089,72.564089 0 0 0 1.5198838,222.91737 72.564089,72.564089 0 0 0 74.083337,295.48085 72.564089,72.564089 0 0 0 146.64678,222.91737 72.564089,72.564089 0 0 0 74.083337,150.35245 Z m -2.734061,7.6953 v 12.76089 c 0,0.70697 0.56975,1.27526 1.27669,1.27526 h 2.91473 c 0.706952,0 1.27669,-0.56829 1.27669,-1.27526 v -12.7212 a 64.965751,64.965751 0 0 1 26.559004,6.92255 l -5.932345,10.27515 c -0.353586,0.61222 -0.145083,1.38889 0.467192,1.7424 l 2.525423,1.45735 c 0.61223,0.35371 1.38893,0.14485 1.74238,-0.46718 l 5.96323,-10.328 a 64.965751,64.965751 0 0 1 20.0566,19.35578 l -12.30542,7.10476 c -0.61223,0.35371 -0.82069,1.13018 -0.4672,1.74241 l 1.45738,2.52547 c 0.35358,0.61218 1.13164,0.82065 1.74382,0.46718 l 12.37306,-7.14441 a 64.965751,64.965751 0 0 1 7.95097,28.44245 h -13.0092 c -0.7069,0 -1.27519,0.56973 -1.27519,1.27666 v 2.91476 c 0,0.70693 0.56829,1.27666 1.27519,1.27666 h 12.96951 a 64.965751,64.965751 0 0 1 -6.70804,26.11532 l -11.29762,-6.52295 c -0.61222,-0.3537 -1.38897,-0.14484 -1.7424,0.46722 l -1.45739,2.52395 c -0.35371,0.61227 -0.14645,1.39042 0.46569,1.74385 l 11.39461,6.57732 a 64.965751,64.965751 0 0 1 -19.0385,20.06692 l -6.06898,-10.51314 c -0.35358,-0.61223 -1.13164,-0.82061 -1.74386,-0.46718 l -2.52399,1.45739 c -0.612223,0.35371 -0.820633,1.13162 -0.467196,1.74388 l 6.142476,10.6409 a 64.965751,64.965751 0 0 1 -29.049204,8.30064 v -13.25896 c 0,-0.70693 -0.569738,-1.27522 -1.27669,-1.27522 h -2.91473 c -0.70694,0 -1.27669,0.56829 -1.27669,1.27522 V 287.7459 A 64.965751,64.965751 0 0 1 41.32018,278.93691 l 5.828017,-10.0929 c 0.353586,-0.61226 0.145083,-1.39041 -0.467148,-1.74388 l -2.523982,-1.45739 c -0.612179,-0.35371 -1.390379,-0.14525 -1.743869,0.46718 L 36.7012,276.00307 A 64.965751,64.965751 0 0 1 18.262098,256.00374 l 10.436731,-6.02492 c 0.612227,-0.35371 0.820689,-1.13158 0.467187,-1.74385 l -1.457359,-2.52395 c -0.353586,-0.61222 -1.130198,-0.82064 -1.742389,-0.46722 l -10.311877,5.95298 A 64.965751,64.965751 0 0 1 9.2151791,225.65143 H 22.224386 c 0.706903,0 1.275193,-0.56973 1.275193,-1.27666 v -2.91476 c 0,-0.70693 -0.56829,-1.27666 -1.275193,-1.27666 H 9.2548469 A 64.965751,64.965751 0 0 1 16.8209,192.28886 l 11.423997,6.59645 c 0.612231,0.35371 1.390391,0.14524 1.743841,-0.46718 l 1.457407,-2.52547 c 0.353586,-0.61223 0.145084,-1.3889 -0.467187,-1.74241 l -11.349099,-6.55379 a 64.965751,64.965751 0 0 1 19.405798,-19.37639 l 5.657663,9.79764 c 0.353585,0.61223 1.130157,0.82061 1.74238,0.46718 l 2.525439,-1.45735 c 0.612219,-0.35371 0.820641,-1.13018 0.467187,-1.7424 l -5.650276,-9.78593 a 64.965751,64.965751 0 0 1 27.571226,-7.45146 z m 1.47797,28.1971 v 35.41642 l 29.642694,17.11396 1.25609,-2.17581 -28.386614,-16.38818 v -33.96639 z"
       id="circle1185"
       inkscape:connector-curvature="0" />
  </g>
</svg>
